# Blender 4.1.1
# www.blender.org
mtllib conveyer_box.mtl
o conveyer_top
v 2.286000 4.999884 -2.413000
v 2.159000 4.999884 -2.540000
v 2.159000 5.454473 -2.540000
v 2.286000 5.454473 -2.413000
v 2.159000 5.581473 -2.413000
v -2.159000 5.581473 -2.413000
v -2.286000 5.454473 -2.413000
v -2.159000 5.454473 -2.540000
v -2.286000 4.999884 -2.413000
v -2.159000 4.999884 -2.540000
v 2.159000 5.581473 2.413000
v 2.286000 5.454473 2.413000
v 2.159000 5.454473 2.540000
v 2.286000 4.999884 2.413000
v 2.159000 4.999884 2.540000
v -2.159000 5.581473 2.413000
v -2.159000 5.454473 2.540000
v -2.286000 5.454473 2.413000
v -2.159000 4.999884 2.540000
v -2.286000 4.999884 2.413000
v -1.861348 1.926173 -2.217643
v -1.924848 1.926173 -2.327628
v -2.051848 1.926173 -2.327628
v -2.115348 1.926173 -2.217643
v -2.051848 1.926173 -2.107658
v -1.924848 1.926173 -2.107658
v -1.861348 4.999884 -2.217643
v -1.924848 4.999884 -2.327628
v -2.051848 4.999884 -2.327628
v -2.115348 4.999884 -2.217643
v -2.051848 4.999884 -2.107658
v -1.924848 4.999884 -2.107658
v 1.861348 1.926173 -2.217643
v 1.924848 1.926173 -2.327628
v 1.924848 4.999884 -2.327628
v 1.861348 4.999884 -2.217643
v 2.051848 1.926173 -2.327628
v 2.051848 4.999884 -2.327628
v 2.115348 1.926173 -2.217643
v 2.115348 4.999884 -2.217643
v 2.051848 1.926173 -2.107658
v 2.051848 4.999884 -2.107658
v 1.924848 1.926173 -2.107658
v 1.924848 4.999884 -2.107658
v -1.861348 1.926173 2.217643
v -1.924848 1.926173 2.327628
v -1.924848 4.999884 2.327628
v -1.861348 4.999884 2.217643
v -2.051848 1.926173 2.327628
v -2.051848 4.999884 2.327628
v -2.115348 1.926173 2.217643
v -2.115348 4.999884 2.217643
v -2.051848 1.926173 2.107658
v -2.051848 4.999884 2.107658
v -1.924848 1.926173 2.107658
v -1.924848 4.999884 2.107658
v 1.861348 1.926173 2.217643
v 1.861348 4.999884 2.217643
v 1.924848 4.999884 2.327628
v 1.924848 1.926173 2.327628
v 2.051848 4.999884 2.327628
v 2.051848 1.926173 2.327628
v 2.115348 4.999884 2.217643
v 2.115348 1.926173 2.217643
v 2.051848 4.999884 2.107658
v 2.051848 1.926173 2.107658
v 1.924848 4.999884 2.107658
v 1.924848 1.926173 2.107658
vn 0.5774 0.5774 -0.5774
vn 0.7071 -0.0000 -0.7071
vn -0.0000 -0.0000 -1.0000
vn 1.0000 -0.0000 -0.0000
vn 0.7071 0.7071 -0.0000
vn -0.0000 -1.0000 -0.0000
vn -0.5774 0.5774 -0.5774
vn -0.7071 -0.0000 -0.7071
vn -0.0000 0.7071 -0.7071
vn -1.0000 -0.0000 -0.0000
vn -0.0000 1.0000 -0.0000
vn 0.5774 0.5774 0.5774
vn 0.7071 -0.0000 0.7071
vn -0.0000 -0.0000 1.0000
vn -0.5774 0.5774 0.5774
vn -0.7071 -0.0000 0.7071
vn -0.0000 0.7071 0.7071
vn -0.7071 0.7071 -0.0000
vn 0.5000 -0.0000 -0.8660
vn -0.5000 -0.0000 -0.8660
vn -0.5000 -0.0000 0.8660
vn 0.5000 -0.0000 0.8660
vt 0.972222 0.975000
vt 1.000000 0.978704
vt 0.976337 1.000000
vt 0.975000 0.951959
vt 0.975000 0.780000
vt 1.000000 0.780000
vt 1.000000 0.951959
vt 0.027778 0.780000
vt 0.027778 0.951959
vt 1.000000 0.975000
vt 0.972222 1.000000
vt 0.750000 0.000000
vt 0.916667 0.000000
vt 0.916667 1.000000
vt 0.750000 1.000000
vt -0.083333 0.000000
vt 0.083333 0.000000
vt 0.083333 1.000000
vt -0.083333 1.000000
vt 0.250000 0.000000
vt 0.250000 1.000000
vt 0.416667 0.000000
vt 0.416667 1.000000
vt 0.583333 0.000000
vt 0.583333 1.000000
s 1
f 5/1/1 4/2/1 3/3/1
f 4/4/2 1/5/2 2/6/2 3/7/2
f 2/8/3 10/8/3 8/9/3 3/9/3
f 1/5/4 4/4/4 12/4/4 14/5/4
f 4/10/5 5/1/5 11/1/5 12/10/5
s 0
f 1/5/6 14/5/6 15/5/6 2/5/6
s 1
f 6/1/7 8/3/7 7/2/7
f 7/4/8 8/7/8 10/6/8 9/5/8
f 5/1/9 3/11/9 8/11/9 6/1/9
f 18/4/10 7/4/10 9/5/10 20/5/10
f 11/1/11 5/1/11 6/1/11 16/1/11
f 11/1/12 13/3/12 12/2/12
f 12/4/13 13/7/13 15/6/13 14/5/13
f 17/9/14 19/8/14 15/8/14 13/9/14
f 16/1/15 18/2/15 17/3/15
f 18/4/16 20/5/16 19/6/16 17/7/16
f 17/11/17 13/11/17 11/1/17 16/1/17
s 0
f 10/5/6 2/5/6 15/5/6 19/5/6
s 1
f 18/10/18 16/1/18 6/1/18 7/10/18
s 0
f 20/5/6 9/5/6 10/5/6 19/5/6
s 1
f 21/12/4 22/13/19 28/14/19 27/15/4
f 22/16/19 23/17/20 29/18/20 28/19/19
f 23/17/20 24/20/10 30/21/10 29/18/20
f 24/20/10 25/22/21 31/23/21 30/21/10
f 25/22/21 26/24/22 32/25/22 31/23/21
f 26/24/22 21/12/4 27/15/4 32/25/22
f 33/12/10 36/15/10 35/14/20 34/13/20
f 34/16/20 35/19/20 38/18/19 37/17/19
f 37/17/19 38/18/19 40/21/4 39/20/4
f 39/20/4 40/21/4 42/23/22 41/22/22
f 41/22/22 42/23/22 44/25/21 43/24/21
f 43/24/21 44/25/21 36/15/10 33/12/10
f 45/12/4 48/15/4 47/14/22 46/13/22
f 46/16/22 47/19/22 50/18/21 49/17/21
f 49/17/21 50/18/21 52/21/10 51/20/10
f 51/20/10 52/21/10 54/23/20 53/22/20
f 53/22/20 54/23/20 56/25/19 55/24/19
f 55/24/19 56/25/19 48/15/4 45/12/4
f 57/12/10 60/13/21 59/14/21 58/15/10
f 60/16/21 62/17/22 61/18/22 59/19/21
f 62/17/22 64/20/4 63/21/4 61/18/22
f 64/20/4 66/22/19 65/23/19 63/21/4
f 66/22/19 68/24/20 67/25/20 65/23/19
f 68/24/20 57/12/10 58/15/10 67/25/20
o conveyer_bottom
v 2.286000 0.000000 -2.413000
v 1.665922 1.977600 -2.232025
v 2.159000 1.977600 -2.540000
v 2.159000 0.000000 -2.540000
v 2.286000 1.977600 -2.413000
v 1.155030 1.736393 -1.571439
v -2.159000 0.000000 -2.540000
v -2.159000 1.977600 -2.540000
v -2.286000 0.000000 -2.413000
v -2.286000 1.977600 -2.413000
v -1.665922 1.977600 -2.232025
v -1.155030 1.736393 -1.571439
v 2.159000 0.000000 2.540000
v 2.159000 1.977600 2.540000
v 2.286000 0.000000 2.413000
v 2.286000 1.977600 2.413000
v 1.665922 1.977600 2.232025
v 1.155030 1.736393 1.571439
v -2.159000 0.000000 2.540000
v -2.159000 1.977600 2.540000
v -2.286000 0.000000 2.413000
v -2.286000 1.977600 2.413000
v -1.665922 1.977600 2.232025
v -1.155030 1.736393 1.571439
vn -0.0000 -0.0000 -1.0000
vn 0.7071 -0.0000 -0.7071
vn -0.0000 1.0000 -0.0000
vn -0.4269 0.9043 -0.0000
vn -0.0000 0.9393 0.3430
vn -0.7071 -0.0000 -0.7071
vn -0.0000 -0.0000 1.0000
vn 1.0000 -0.0000 -0.0000
vn 0.7071 -0.0000 0.7071
vn -0.0000 0.9393 -0.3430
vn -1.0000 -0.0000 -0.0000
vn -0.7071 -0.0000 0.7071
vn 0.4269 0.9043 -0.0000
vt 0.081701 0.000000
vt 0.081701 0.220000
vt 0.957188 0.220000
vt 0.957188 0.000000
vt 1.000000 0.000000
vt 1.000000 0.220000
vt 0.939375 0.220000
s 1
f 75/26/23 76/27/23 71/27/23 72/26/23
f 73/28/24 69/29/24 72/30/24 71/31/24
f 70/32/25 71/32/25 76/32/25 79/32/25
s 0
f 74/32/26 86/32/26 85/32/26 70/32/26
f 70/32/25 73/28/25 71/27/25
f 74/32/27 70/32/27 79/32/27 80/32/27
s 1
f 78/32/25 90/32/25 91/32/25 79/32/25
f 78/28/28 76/31/28 75/30/28 77/29/28
s 0
f 79/32/25 76/27/25 78/28/25
s 1
f 81/26/29 82/27/29 88/27/29 87/26/29
f 69/29/30 73/28/30 84/28/30 83/29/30
f 85/32/25 84/32/25 73/32/25 70/32/25
f 84/28/31 82/31/31 81/30/31 83/29/31
f 85/32/25 91/32/25 88/32/25 82/32/25
s 0
f 85/32/25 82/27/25 84/28/25
f 91/32/32 85/32/32 86/32/32 92/32/32
s 1
f 80/32/25 92/32/25 86/32/25 74/32/25
f 89/29/33 90/28/33 78/28/33 77/29/33
f 90/28/34 89/29/34 87/30/34 88/31/34
s 0
f 91/32/35 92/32/35 80/32/35 79/32/35
f 91/32/25 90/28/25 88/27/25
