# Blender 4.1.1
# www.blender.org
mtllib floor_panel.mtl
o Box004
v -6.350000 0.000000 6.350000
v 6.350000 0.000000 6.350000
v -6.350000 0.000000 -6.350000
v 6.350000 0.000000 -6.350000
v -6.350000 0.807072 6.350000
v 6.350000 0.807072 6.350000
v -6.350000 0.807072 -6.350000
v 6.350000 0.807072 -6.350000
vn -0.0000 -1.0000 -0.0000
vn -0.0000 1.0000 -0.0000
vn -0.0000 -0.0000 1.0000
vn 1.0000 -0.0000 -0.0000
vn -0.0000 -0.0000 -1.0000
vn -1.0000 -0.0000 -0.0000
vt 1.000000 0.000000
vt 1.000000 1.000000
vt 0.000000 1.000000
vt 0.000000 0.000000
s 1
f 1/1/1 3/2/1 4/3/1 2/4/1
f 5/4/2 6/1/2 8/2/2 7/3/2
f 1/4/3 2/1/3 6/2/3 5/3/3
f 2/4/4 4/1/4 8/2/4 6/3/4
f 4/4/5 3/1/5 7/2/5 8/3/5
f 3/4/6 1/1/6 5/2/6 7/3/6
